<svg id="BackGround" xmlns="http://www.w3.org/2000/svg" viewBox="0 0 1024 1024"><defs><style>.cls-1{fill:#a08780;}.cls-2{fill:#fff;}.cls-3{fill:#ae9579;}.cls-4{fill:#efddb8;stroke:#efddb8;stroke-miterlimit:10;stroke-width:5px;}.cls-5{fill:#b1977a;}.cls-6{opacity:0.39;}.cls-7{fill:#cc8cb6;}.cls-8{fill:#5b4e42;}.cls-9{fill:#3c332d;}.cls-10{fill:#312e2a;}.cls-11,.cls-17{font-size:96px;font-family:DK Jambo;}.cls-11{fill:#7a7067;}.cls-12{letter-spacing:-2px;}.cls-13{letter-spacing:-3px;}.cls-14{letter-spacing:1px;}.cls-15{letter-spacing:-1px;}.cls-16{letter-spacing:4px;}.cls-17{fill:#251e1c;}</style></defs><title>Megumi_K</title><rect class="cls-1" width="1024" height="1024"/><ellipse class="cls-2" cx="508.46" cy="490.31" rx="378.46" ry="383.42"/><path class="cls-3" d="M668.63,403.47c3.94,75.1-68.69,140-162.23,144.86-71.87,3.77-172.55-52-176.49-127.09s68.69-140,162.23-144.86S664.69,328.37,668.63,403.47Z"/><path class="cls-4" d="M661.35,392.48C666,467.54,594,533.08,500.51,538.88c-71.83,4.45-173-50.35-177.7-125.4s67.36-140.6,160.84-146.4S656.7,317.42,661.35,392.48Z"/><path class="cls-5" d="M344.83,467l9.2-70.46s11.9-44.61,14.92-45.07,34.92-42.31,34.92-42.31,41.94,18.53,56.39,23.45c14.12,4.81,42.39,13.37,57.46,13.47,12.54,0.08,34.3-7.22,41.07-1.86,12,9.49,8.93,35.84,15,68.2,5.59,29.66,11.09,61.86,13.38,70.49,3.08,11.58,7.71,31.36,7.71,31.36l12.22-6.37L568.78,330.33s-28.05,12-50.59,4.14-66.68-16.56-77.72-25.29S404.55,300.5,406,295.26s-20.27,12.54-20.27,12.54l-29,40.93S340.23,394.81,340.23,412s-5.52,48.93-5.52,48.93Z"/><g class="cls-6"><path class="cls-7" d="M506.11,410.68c-8.69,5.68-13.71,14-14.1,24.51a29.56,29.56,0,0,0,9.91,22.67c12.9,11.16,32.74,12,46.28,1.55,14.87-11.49,13.34-31.5,4.57-46.27-5.17-8.72-14.93-14.73-25.22-14.27-9.33.41-17.16,5.1-23.8,11.38-8.57,8.11-8.79,23.76,0,31.82,9.19,8.43,22.68,8.65,31.82,0q2.6-2.35-1.42.85,3.14-1.88-1.83.42-12,2-18.41-7.48l0.56,1q0.59,1.14,1.12,2.31-1.89-4.73-.7-1.3,0.86,3.68-.2-1.85a11.27,11.27,0,0,1,4.77-10.23,8.77,8.77,0,0,1,5.92-3.95q-3.51.93,2.27,0a18.22,18.22,0,0,1-2.55,0q5.36,0.93,2.76.29t2.38,1.1a13.9,13.9,0,0,1,4.6,4.74c4.58,7.57,1.17,16.88-6,21.59,9.84-6.44,14.89-20.21,8.07-30.78-6.33-9.82-20.25-15-30.78-8.07h0Z"/></g><g class="cls-6"><path class="cls-7" d="M401,442.92l0.76-.46-11.36,3.07-8.91-2.24-8.07-8.07q17.67-31.42,5.31-24.15l2.82-1.27a27.31,27.31,0,0,1-3.05.8l2.86-.36a27.12,27.12,0,0,1-3.16.08l3.57,0.53c7.2,2,12.54,9.22,11.52,16.37a8.43,8.43,0,0,1-1.63,4.75q1.39-2.32-.39.11c-4.07,3.2,4.23-2.06-.38.43-4.26,2.29-8.24,3.16-13.24,1-8-3.42-9.86-10.26-8.62-18.23-1,6.19-1,11.72,2.27,17.34,2.73,4.67,8.08,9.12,13.45,10.34,10.76,2.45,25.74-3.28,27.68-15.71,1.68-10.79-.05-21.19-8.26-29.07a29.87,29.87,0,0,0-30.47-6.55c-19,6.53-32.36,30.39-21.26,49.15C362.73,458.21,387,458.74,403,449c11.43-7,16.27-20.72,11.06-33.06-5.76-13.65-22.85-19.75-35.72-11.9-10,6.13-14.74,20.44-8.07,30.78,6.5,10.09,20,14.63,30.78,8.07h0Z"/></g><path class="cls-8" d="M371.45,427.68c2.64,12.48,7.45,24.21,16.4,33.51s20.68,17,32,22.73c27.34,13.74,66.55,15.24,91.83-4.07,14.37-11,21.78-28.29,28.76-44.42,1.9-4.38-4.56-8.21-6.48-3.79-5.67,13.11-11.42,27.09-21.5,37.51-10.4,10.74-25.22,15.42-39.77,16.92-28.24,2.9-55.39-8.2-76.24-27-10-9-15-20.41-17.76-33.38-1-4.72-8.23-2.72-7.23,2h0Z"/><path class="cls-8" d="M397.32,359.49q-1.69,7.19-2.84,14.48c-0.63,4,1,8.07,5.24,9.23,3.56,1,8.59-1.21,9.23-5.24q1.15-7.29,2.84-14.48a7.66,7.66,0,0,0-5.24-9.23c-3.8-1-8.29,1.28-9.23,5.24h0Z"/><path class="cls-8" d="M492.89,358.74a103.8,103.8,0,0,0-2,18c-0.19,9.66,14.81,9.66,15,0a80.24,80.24,0,0,1,1.45-14c0.78-4-1.13-8.1-5.24-9.23-3.68-1-8.44,1.24-9.23,5.24h0Z"/><path class="cls-8" d="M434.59,224.42s-160-54.63-133.55,77.36c24.35,121.63,10.87,147.39-14.68,178.33-64.1,77.64-59.68-14-66.86,27.14-3.42,19.59,1.41,34.06,10.4,44.28,21,23.87,64.81,24.49,79.29,12.8,47.06-38,24.72-191.6,70.12-231.56,8.72-7.68,26.63-29.26,26.63-29.26s66.49,31,90.45,34.72c50.8,8,68.82-3.83,68.82-3.83s22.65,186.08,58.56,218c11.78,10.46,37.87,5.45,63.8-3.67,8.61-3,17.21-6.51,25.26-10,24.15-10.57,43.38-21.47,43.38-21.47s-87.49-35.28-78-71.54c9.33-35.77,3-133.59-3.7-169.94C665.77,228.77,582.79,150.32,434.59,224.42Z"/><path class="cls-9" d="M434.59,224.42c-8.77,4.24-28.64,79.09-28.64,79.09l43.14-86Z"/><path class="cls-9" d="M733.06,506.35s-13.41,14.78-21,20.88c-5,4.06-44.14,27.43-44.14,27.43s45-13,50.53-15.52c10.36-4.7,37.75-22,37.75-22S754.08,516.23,733.06,506.35Z"/><path class="cls-9" d="M262.08,569.55s23.47-11.06,31.76-13.45c12.15-3.51,37.6-30.53,37.6-30.53s-5.42,18.26-11.31,26.15c-10.08,13.49-4.57,9.12-12.87,14-10.73,6.29-17.75,6.75-27.4,6S262.08,569.55,262.08,569.55Z"/><path class="cls-10" d="M607.73,319.43c-3.5,11.27-30.85,25.74-41.55,22.41l-1-7s29-24.18,39.68-20.86C606.34,314.46,608.18,318,607.73,319.43Z"/><path class="cls-1" d="M565.19,342.33c0,37.68,35.55,0,0,0s0,37.68,0,0-35.55,0,0,0S565.19,304.65,565.19,342.33Z"/><text class="cls-11" transform="translate(296.76 726.59)"><tspan class="cls-12">M</tspan><tspan x="63.74" y="0">e</tspan><tspan class="cls-13" x="110.11" y="0">g</tspan><tspan class="cls-14" x="166.18" y="0">u</tspan><tspan class="cls-15" x="218.01" y="0">m</tspan><tspan class="cls-16" x="281.37" y="0">i K</tspan></text><text class="cls-17" transform="translate(289.17 726.59)"><tspan class="cls-12">M</tspan><tspan x="63.74" y="0">e</tspan><tspan class="cls-13" x="110.11" y="0">g</tspan><tspan class="cls-14" x="166.18" y="0">u</tspan><tspan class="cls-15" x="218.01" y="0">m</tspan><tspan class="cls-16" x="281.37" y="0">i K</tspan></text></svg>